<svg xmlns="http://www.w3.org/2000/svg" width="32" height="32" viewBox="0 0 8.467 8.467" id="delete">
  <g color="#000" font-family="sans-serif" font-weight="400">
    <path fill="#26c6da" d="M53.71 1.852c-.065 0-.12-.002-.183.005a.384.384 0 0 0-.236.106.38.38 0 0 0-.104.236c-.007.063-.005.116-.005.182a.265.265 0 0 0 .002.03l.529 4.763-.002-.03c0 .221.101.41.242.551.141.14.33.242.55.242h2.648a.78.78 0 0 0 .55-.242c.141-.14.242-.33.242-.55l-.002.029.53-4.764a.265.265 0 0 0 .001-.03c0-.065.002-.118-.005-.18a.38.38 0 0 0-.104-.237.387.387 0 0 0-.238-.106c-.063-.007-.116-.005-.182-.005z" overflow="visible" paint-order="markers fill stroke" style="line-height:normal;font-variant-ligatures:normal;font-variant-position:normal;font-variant-caps:normal;font-variant-numeric:normal;font-variant-alternates:normal;font-feature-settings:normal;text-indent:0;text-align:start;text-decoration-line:none;text-decoration-style:solid;text-decoration-color:#000;text-transform:none;text-orientation:mixed;shape-padding:0;isolation:auto;mix-blend-mode:normal" transform="translate(-51.594)"></path>
    <path fill="#26c6da" d="M54.504.53a.277.277 0 0 0 .027.552h2.592a.276.276 0 1 0 0-.553h-2.592a.276.276 0 0 0-.027 0z" overflow="visible" style="line-height:normal;font-variant-ligatures:normal;font-variant-position:normal;font-variant-caps:normal;font-variant-numeric:normal;font-variant-alternates:normal;font-feature-settings:normal;text-indent:0;text-align:start;text-decoration-line:none;text-decoration-style:solid;text-decoration-color:#000;text-transform:none;text-orientation:mixed;shape-padding:0;isolation:auto;mix-blend-mode:normal" transform="translate(-51.594)"></path>
    <path fill="#00acc1" d="M211 6.998V30h5.002c.833 0 1.55-.384 2.082-.916.532-.532.914-1.247.914-2.08l-.008.11 2.002-18.005a1 1 0 0 0 .006-.111c0-.25.005-.448-.021-.685-.027-.238-.093-.597-.391-.895-.298-.298-.663-.372-.9-.398-.238-.027-.438-.022-.688-.022z" overflow="visible" paint-order="markers fill stroke" style="line-height:normal;font-variant-ligatures:normal;font-variant-position:normal;font-variant-caps:normal;font-variant-numeric:normal;font-variant-alternates:normal;font-feature-settings:normal;text-indent:0;text-align:start;text-decoration-line:none;text-decoration-style:solid;text-decoration-color:#000;text-transform:none;text-orientation:mixed;shape-padding:0;isolation:auto;mix-blend-mode:normal" transform="translate(-51.594)scale(.26458)"></path>
    <path fill="#e6e6e6" d="M55.004 3.701a.265.265 0 0 0-.234.268V5.82a.265.265 0 1 0 .529 0V3.97a.265.265 0 0 0-.295-.268Z" overflow="visible" paint-order="markers fill stroke" style="line-height:normal;font-variant-ligatures:normal;font-variant-position:normal;font-variant-caps:normal;font-variant-numeric:normal;font-variant-alternates:normal;font-feature-settings:normal;text-indent:0;text-align:start;text-decoration-line:none;text-decoration-style:solid;text-decoration-color:#000;text-transform:none;text-orientation:mixed;shape-padding:0;isolation:auto;mix-blend-mode:normal" transform="translate(-51.594)"></path>
    <path fill="#ccc" d="M56.59 3.701a.265.265 0 0 0-.235.268V5.82a.265.265 0 1 0 .53 0V3.97a.265.265 0 0 0-.295-.268Z" overflow="visible" paint-order="markers fill stroke" style="line-height:normal;font-variant-ligatures:normal;font-variant-position:normal;font-variant-caps:normal;font-variant-numeric:normal;font-variant-alternates:normal;font-feature-settings:normal;text-indent:0;text-align:start;text-decoration-line:none;text-decoration-style:solid;text-decoration-color:#000;text-transform:none;text-orientation:mixed;shape-padding:0;isolation:auto;mix-blend-mode:normal" transform="translate(-51.594)"></path>
    <path fill="#00acc1" d="M211 2v2.09h4.898a1.045 1.045 0 1 0 0-2.09Z" overflow="visible" style="line-height:normal;font-variant-ligatures:normal;font-variant-position:normal;font-variant-caps:normal;font-variant-numeric:normal;font-variant-alternates:normal;font-feature-settings:normal;text-indent:0;text-align:start;text-decoration-line:none;text-decoration-style:solid;text-decoration-color:#000;text-transform:none;text-orientation:mixed;shape-padding:0;isolation:auto;mix-blend-mode:normal" transform="translate(-51.594)scale(.26458)"></path>
  </g>
</svg>
