<svg xmlns="http://www.w3.org/2000/svg" viewBox="0 0 512 512" id="Statistic">
  <path fill="#ffffff" d="M60 404.6a27.16 27.16 0 00-27.17 27.17V502H87.12V431.77A27.16 27.16 0 0060 404.6zM256 217.14a27.18 27.18 0 00-27.17 27.17V502h54.34V244.31A27.18 27.18 0 00256 217.14zM158 310.87A27.16 27.16 0 00130.81 338V502h54.34V338A27.17 27.17 0 00158 310.87zM354 310.87A27.17 27.17 0 00326.85 338V502h54.34V338A27.16 27.16 0 00354 310.87zM452 166.65h0a27.16 27.16 0 00-27.16 27.16V502h54.33V193.81A27.16 27.16 0 00452 166.65z" class="colorffffff svgShape"></path>
  <circle cx="59.96" cy="273.98" r="26.03" fill="#77dafc" class="color94edff svgShape"></circle>
  <circle cx="157.98" cy="180.26" r="26.03" fill="#77dafc" class="color94edff svgShape"></circle>
  <circle cx="354.02" cy="180.26" r="26.03" fill="#77dafc" class="color94edff svgShape"></circle>
  <circle cx="256" cy="86.53" r="26.03" fill="#77dafc" class="color94edff svgShape"></circle>
  <circle cx="452.04" cy="36.03" r="26.03" fill="#77dafc" class="color94edff svgShape"></circle>
  <path fill="#00beff" d="M502,512H10a10,10,0,0,1,0-20H502a10,10,0,0,1,0,20Z" class="color00c5ff svgShape"></path>
  <path fill="#00beff" d="M87.12 507.4a10 10 0 01-10-10V431.77a17.17 17.17 0 10-34.33 0V497.4a10 10 0 01-20 0V431.77a37.17 37.17 0 1174.33 0V497.4A10 10 0 0187.12 507.4zM283.17 508.52a10 10 0 01-10-10V244.31a17.17 17.17 0 00-34.34 0V498.52a10 10 0 01-20 0V244.31a37.17 37.17 0 0174.34 0V498.52A10 10 0 01283.17 508.52zM185.15 507.4a10 10 0 01-10-10V338a17.17 17.17 0 00-34.34 0V497.4a10 10 0 01-20 0V338a37.17 37.17 0 0174.34 0V497.4A10 10 0 01185.15 507.4zM381.19 508.52a10 10 0 01-10-10V338a17.17 17.17 0 00-34.34 0V498.52a10 10 0 01-20 0V338a37.17 37.17 0 1174.34 0V498.52A10 10 0 01381.19 508.52zM424.88 508.52a10 10 0 01-10-10V193.81a37.17 37.17 0 0174.33 0V498.05a10 10 0 01-20 0V193.81a17.17 17.17 0 00-34.33 0V498.52A10 10 0 01424.88 508.52zM369.54 167.42a10 10 0 01-8.27-15.62l67.35-99.09A10 10 0 11445.16 64L377.82 163A10 10 0 01369.54 167.42zM334.36 171.46a10 10 0 01-6.91-2.77L269 112.75a10 10 0 0113.82-14.46l58.5 55.94a10 10 0 01-6.92 17.23zM177.93 171.18A10 10 0 01171 154l58.2-55.66a10 10 0 0113.83 14.46L184.84 168.4A9.94 9.94 0 01177.93 171.18zM79.21 265.58a10 10 0 01-6.92-17.23l58.85-56.27A10 10 0 01145 206.54L86.12 262.8A10 10 0 0179.21 265.58z" class="color00c5ff svgShape"></path>
  <path fill="#00beff" d="M60 310a36 36 0 1136-36A36.08 36.08 0 0160 310zM60 258a16 16 0 1016 16A16.06 16.06 0 0060 258zM158 216.29a36 36 0 1136-36A36.07 36.07 0 01158 216.29zm0-52.07a16 16 0 1016 16A16.06 16.06 0 00158 164.22zM354 216.29a36 36 0 1136-36A36.07 36.07 0 01354 216.29zm0-52.07a16 16 0 1016 16A16.06 16.06 0 00354 164.22zM256 122.56a36 36 0 1136-36A36.07 36.07 0 01256 122.56zm0-52.06a16 16 0 1016 16A16 16 0 00256 70.5zM452 72.06a36 36 0 1136-36A36.07 36.07 0 01452 72.06zM452 20a16 16 0 1016 16A16.05 16.05 0 00452 20zM67.77 353.47H52.14a10 10 0 110-20H67.77a10 10 0 010 20zM165.79 259.75H150.16a10 10 0 110-20h15.63a10 10 0 010 20zM361.84 259.75H346.21a10 10 0 010-20h15.63a10 10 0 010 20zM459.86 115.52H444.23a10 10 0 010-20h15.63a10 10 0 010 20zM263.81 166H248.19a10 10 0 010-20h15.62a10 10 0 010 20z" class="color00c5ff svgShape"></path>
</svg>
