<svg xmlns="http://www.w3.org/2000/svg" xmlns:xlink="http://www.w3.org/1999/xlink" viewBox="0 0 16 16" id="sunrise">
  <defs>
    <path id="a" d="M0,0h2.5v1h-2.5Z" fill="#77dafc" class="color000000 svgShape"></path>
  </defs>
  <path d="M0,0h1v2.5h-1Z" transform="translate(7.5)" fill="#77dafc" class="color000000 svgShape"></path>
  <use xlink:href="#a" transform="translate(13.5 7.5)" fill="#77dafc" class="color000000 svgShape"></use>
  <use xlink:href="#a" transform="translate(0 7.5)" fill="#77dafc" class="color000000 svgShape"></use>
  <path d="M0,0h2.49973v0.999893h-2.49973Z" transform="rotate(-45 10.303 -12.046)" fill="#77dafc" class="color000000 svgShape"></path>
  <path d="M0,0h0.999893v2.49973h-0.999893Z" transform="rotate(-45 4.25 -1.053)" fill="#77dafc" class="color000000 svgShape"></path>
  <path d="M4.5,0c-2.48145,0 -4.5,2.01855 -4.5,4.5c0,0.344788 0.0470581,0.677246 0.12085,1h8.7583c0.0737915,-0.322754 0.12085,-0.655212 0.12085,-1c0,-2.48145 -2.01855,-4.5 -4.5,-4.5Z" transform="translate(3.5 3.5)" fill="#77dafc" class="color000000 svgShape"></path>
  <path d="M0,3.70703l1.41406,1.41406l1.29297,-1.29297v2.17188h2v-2.17188l1.29297,1.29297l1.41406,-1.41406l-3.70703,-3.70703Z" transform="translate(4.293 10)" fill="#77dafc" class="color000000 svgShape"></path>
</svg>
