<svg xmlns="http://www.w3.org/2000/svg" enable-background="new 0 0 24 24" viewBox="0 0 24 24" id="wind">
  <g id="Layer_2" fill="#77dafc" class="color000000 svgShape">
    <path d="M21 10h-7c-1.7 0-3-1.3-3-3s1.3-3 3-3c.9 0 1.7.4 2.2 1 .4.4.3 1-.1 1.4-.4.4-1 .3-1.4-.1C14.6 6.1 14.3 6 14 6c-.6 0-1 .4-1 1s.4 1 1 1h7c.6 0 1 .4 1 1S21.6 10 21 10zM5 17c-1.7 0-3-1.3-3-3s1.3-3 3-3h16c.6 0 1 .4 1 1s-.4 1-1 1H5c-.6 0-1 .4-1 1s.4 1 1 1c.3 0 .6-.1.7-.3.4-.4 1-.4 1.4-.1.4.4.4 1 .1 1.4C6.7 16.6 5.9 17 5 17z" fill="#77dafc" class="color000000 svgShape"></path>
    <path d="M12,20c-1.7,0-3-1.3-3-3s1.3-3,3-3h9c0.6,0,1,0.4,1,1s-0.4,1-1,1h-9c-0.6,0-1,0.4-1,1s0.4,1,1,1c0.3,0,0.6-0.1,0.8-0.4
			c0.3-0.4,1-0.5,1.4-0.2c0.4,0.3,0.5,1,0.2,1.4C13.8,19.6,12.9,20,12,20z" fill="#77dafc" class="color000000 svgShape"></path>
  </g>
</svg>
